<svg id="visual" viewBox="0 0 1920 1080" width="1920" height="1080" xmlns="http://www.w3.org/2000/svg" xmlns:xlink="http://www.w3.org/1999/xlink" version="1.1"><rect x="0" y="0" width="1920" height="1080" fill="#f6f6f6"></rect><path d="M0 533L45.7 542.3C91.3 551.7 182.7 570.3 274.2 564.5C365.7 558.7 457.3 528.3 548.8 534.2C640.3 540 731.7 582 823 587.7C914.3 593.3 1005.7 562.7 1097 548C1188.3 533.3 1279.7 534.7 1371.2 528.3C1462.7 522 1554.3 508 1645.8 501.5C1737.3 495 1828.7 496 1874.3 496.5L1920 497L1920 1081L1874.3 1081C1828.7 1081 1737.3 1081 1645.8 1081C1554.3 1081 1462.7 1081 1371.2 1081C1279.7 1081 1188.3 1081 1097 1081C1005.7 1081 914.3 1081 823 1081C731.7 1081 640.3 1081 548.8 1081C457.3 1081 365.7 1081 274.2 1081C182.7 1081 91.3 1081 45.7 1081L0 1081Z" fill="#858de0"></path><path d="M0 708L45.7 706.7C91.3 705.3 182.7 702.7 274.2 696.3C365.7 690 457.3 680 548.8 668.3C640.3 656.7 731.7 643.3 823 648C914.3 652.7 1005.7 675.3 1097 677.3C1188.3 679.3 1279.7 660.7 1371.2 648.7C1462.7 636.7 1554.3 631.3 1645.8 636C1737.3 640.7 1828.7 655.3 1874.3 662.7L1920 670L1920 1081L1874.3 1081C1828.7 1081 1737.3 1081 1645.8 1081C1554.3 1081 1462.7 1081 1371.2 1081C1279.7 1081 1188.3 1081 1097 1081C1005.7 1081 914.3 1081 823 1081C731.7 1081 640.3 1081 548.8 1081C457.3 1081 365.7 1081 274.2 1081C182.7 1081 91.3 1081 45.7 1081L0 1081Z" fill="#7780e1"></path><path d="M0 788L45.7 783.2C91.3 778.3 182.7 768.7 274.2 772.8C365.7 777 457.3 795 548.8 810.8C640.3 826.7 731.7 840.3 823 840.3C914.3 840.3 1005.7 826.7 1097 825.2C1188.3 823.7 1279.7 834.3 1371.2 832.3C1462.7 830.3 1554.3 815.7 1645.8 804.8C1737.3 794 1828.7 787 1874.3 783.5L1920 780L1920 1081L1874.3 1081C1828.7 1081 1737.3 1081 1645.8 1081C1554.3 1081 1462.7 1081 1371.2 1081C1279.7 1081 1188.3 1081 1097 1081C1005.7 1081 914.3 1081 823 1081C731.7 1081 640.3 1081 548.8 1081C457.3 1081 365.7 1081 274.2 1081C182.7 1081 91.3 1081 45.7 1081L0 1081Z" fill="#6972e1"></path><path d="M0 911L45.7 912.3C91.3 913.7 182.7 916.3 274.2 917.5C365.7 918.7 457.3 918.3 548.8 927C640.3 935.7 731.7 953.3 823 951.7C914.3 950 1005.7 929 1097 927.5C1188.3 926 1279.7 944 1371.2 944.8C1462.7 945.7 1554.3 929.3 1645.8 928.2C1737.3 927 1828.7 941 1874.3 948L1920 955L1920 1081L1874.3 1081C1828.7 1081 1737.3 1081 1645.8 1081C1554.3 1081 1462.7 1081 1371.2 1081C1279.7 1081 1188.3 1081 1097 1081C1005.7 1081 914.3 1081 823 1081C731.7 1081 640.3 1081 548.8 1081C457.3 1081 365.7 1081 274.2 1081C182.7 1081 91.3 1081 45.7 1081L0 1081Z" fill="#5a65e1"></path></svg>